<svg xmlns="http://www.w3.org/2000/svg" viewBox="0 0 512 512" role="img" aria-label="YEOL Tuner icon">
  <defs>
    <linearGradient id="bg" x1="92" y1="58" x2="424" y2="452" gradientUnits="userSpaceOnUse">
      <stop stop-color="#23211f"/>
      <stop offset=".5" stop-color="#111719"/>
      <stop offset="1" stop-color="#071112"/>
    </linearGradient>
    <linearGradient id="gold" x1="164" y1="112" x2="332" y2="418" gradientUnits="userSpaceOnUse">
      <stop stop-color="#fff0bb"/>
      <stop offset=".42" stop-color="#e3b35f"/>
      <stop offset="1" stop-color="#bf5b43"/>
    </linearGradient>
    <linearGradient id="green" x1="190" y1="357" x2="322" y2="357" gradientUnits="userSpaceOnUse">
      <stop stop-color="#39c4aa"/>
      <stop offset="1" stop-color="#aaf5dd"/>
    </linearGradient>
    <filter id="shadow" x="-30%" y="-30%" width="160%" height="160%">
      <feDropShadow dx="0" dy="18" stdDeviation="20" flood-color="#000000" flood-opacity=".38"/>
    </filter>
  </defs>

  <rect width="512" height="512" rx="116" fill="url(#bg)"/>
  <rect x="34" y="34" width="444" height="444" rx="92" fill="none" stroke="#fff4dd" stroke-opacity=".08" stroke-width="3"/>

  <path d="M115 247a141 141 0 0 1 282 0" fill="none" stroke="#fff4dd" stroke-opacity=".10" stroke-width="28" stroke-linecap="round"/>
  <path d="M132 246a124 124 0 0 1 248 0" fill="none" stroke="url(#gold)" stroke-width="14" stroke-linecap="round"/>
  <path d="M236 122h40" stroke="#fff4dd" stroke-opacity=".55" stroke-width="10" stroke-linecap="round"/>

  <g filter="url(#shadow)">
    <path d="M166 166l90 132 90-132" fill="none" stroke="#fff4dd" stroke-width="54" stroke-linecap="round" stroke-linejoin="round"/>
    <path d="M256 298v97" fill="none" stroke="#fff4dd" stroke-width="54" stroke-linecap="round"/>
    <path d="M166 166l90 132 90-132" fill="none" stroke="url(#gold)" stroke-width="30" stroke-linecap="round" stroke-linejoin="round"/>
    <path d="M256 298v97" fill="none" stroke="url(#gold)" stroke-width="30" stroke-linecap="round"/>
  </g>

  <path d="M256 142v218" stroke="#fff8ec" stroke-width="12" stroke-linecap="round"/>
  <circle cx="256" cy="142" r="19" fill="#fff8ec"/>
  <circle cx="256" cy="360" r="27" fill="url(#green)"/>
  <path d="M197 359h118" stroke="#071112" stroke-opacity=".28" stroke-width="8" stroke-linecap="round"/>
</svg>
